<svg width="1000" height="1000" viewBox="0 0 1000 1000" fill="none" xmlns="http://www.w3.org/2000/svg">
<path d="M676 925H144C135.716 925 129 918.284 129 910V211C129 202.716 135.716 196 144 196H388.816C392.878 196 396.767 197.647 399.592 200.566L521.922 326.899L687.141 510.167C689.625 512.923 691 516.501 691 520.211V910C691 918.284 684.284 925 676 925Z" stroke="black" stroke-width="70"/>
<path fill-rule="evenodd" clip-rule="evenodd" d="M344 161V109H836V768H685V838H856C883.614 838 906 815.614 906 788V89C906 61.3858 883.614 39 856 39H324C296.386 39 274 61.3857 274 89V161H344Z" fill="black"/>
</svg>
