<svg width="236" height="177" viewBox="0 0 236 177" fill="none" xmlns="http://www.w3.org/2000/svg">
<mask id="path-1-inside-1_89_33" fill="white">
<path fill-rule="evenodd" clip-rule="evenodd" d="M44.4868 0C32.3365 0 22.4868 9.84974 22.4868 22V126.398L5.95356 142.803C-6.72191 155.379 2.1842 177 20.0401 177H63.4868H215.802C233.745 177 242.611 155.198 229.759 142.675L213.487 126.821V22C213.487 9.84974 203.637 0 191.487 0H44.4868Z"/>
</mask>
<path fill-rule="evenodd" clip-rule="evenodd" d="M44.4868 0C32.3365 0 22.4868 9.84974 22.4868 22V126.398L5.95356 142.803C-6.72191 155.379 2.1842 177 20.0401 177H63.4868H215.802C233.745 177 242.611 155.198 229.759 142.675L213.487 126.821V22C213.487 9.84974 203.637 0 191.487 0H44.4868Z" fill="#CCCCCC"/>
<path d="M22.4868 126.398L32.3474 136.337L36.4868 132.23V126.398H22.4868ZM5.95356 142.803L-3.90704 132.864L-3.90704 132.864L5.95356 142.803ZM229.759 142.675L219.989 152.703L219.989 152.703L229.759 142.675ZM213.487 126.821H199.487V132.726L203.717 136.848L213.487 126.821ZM36.4868 22C36.4868 17.5817 40.0685 14 44.4868 14V-14C24.6046 -14 8.48681 2.11775 8.48681 22H36.4868ZM36.4868 126.398V22H8.48681V126.398H36.4868ZM12.6262 116.46L-3.90704 132.864L15.8142 152.741L32.3474 136.337L12.6262 116.46ZM-3.90704 132.864C-25.4553 154.244 -10.3149 191 20.0401 191V163C14.6833 163 12.0115 156.514 15.8142 152.741L-3.90704 132.864ZM20.0401 191H63.4868V163H20.0401V191ZM63.4868 191H215.802V163H63.4868V191ZM215.802 191C246.306 191 261.377 153.936 239.529 132.648L219.989 152.703C223.844 156.459 221.185 163 215.802 163V191ZM239.529 132.648L223.257 116.793L203.717 136.848L219.989 152.703L239.529 132.648ZM199.487 22V126.821H227.487V22H199.487ZM191.487 14C195.905 14 199.487 17.5817 199.487 22H227.487C227.487 2.11776 211.369 -14 191.487 -14V14ZM44.4868 14H191.487V-14H44.4868V14Z" fill="black" mask="url(#path-1-inside-1_89_33)"/>
<rect x="44.4868" y="23" width="147" height="102" fill="#1F1F1F"/>
<path d="M188.487 133H47.4868L35.4868 147H92.9868L88.9868 154.5H147.487L143.487 147H200.487L188.487 133Z" fill="#A6A6A6"/>
</svg>
