<svg width="268" height="268" viewBox="0 0 268 268" fill="none" xmlns="http://www.w3.org/2000/svg">
<path d="M168.794 27.5596C168.299 25.1724 166.509 23.2632 164.159 22.6148C161.809 21.9663 159.293 22.6875 157.644 24.4829L134.17 50.0315L111.078 24.1371C109.455 22.3174 106.95 21.5589 104.591 22.1724C102.231 22.7859 100.413 24.6683 99.8823 27.0479L92.3275 60.9106L59.382 50.0314C57.0669 49.267 54.5187 49.8623 52.7819 51.5734C51.0452 53.2846 50.4121 55.8237 51.1421 58.1499L61.5308 91.2533L27.5596 98.3044C25.1724 98.7999 23.2632 100.59 22.6148 102.94C21.9663 105.29 22.6875 107.806 24.4829 109.455L50.0315 132.929L24.1371 156.021C22.3174 157.644 21.5589 160.148 22.1724 162.508C22.7859 164.868 24.6683 166.686 27.0479 167.216L60.9106 174.771L50.0314 207.717C49.267 210.032 49.8623 212.58 51.5734 214.317C53.2846 216.053 55.8237 216.687 58.1499 215.957L91.2533 205.568L98.3044 239.539C98.7999 241.926 100.59 243.835 102.94 244.484C105.29 245.132 107.806 244.411 109.455 242.616L132.929 217.067L156.021 242.962C157.644 244.781 160.148 245.54 162.508 244.926C164.868 244.313 166.686 242.43 167.216 240.051L174.771 206.188L207.717 217.067C210.032 217.832 212.58 217.236 214.317 215.525C216.053 213.814 216.687 211.275 215.957 208.949L205.568 175.845L239.539 168.794C241.926 168.299 243.835 166.509 244.484 164.159C245.132 161.809 244.411 159.293 242.616 157.644L217.067 134.17L242.962 111.078C244.781 109.455 245.54 106.95 244.926 104.591C244.313 102.231 242.43 100.413 240.051 99.8823L206.188 92.3275L217.067 59.382C217.832 57.0669 217.236 54.5187 215.525 52.7819C213.814 51.0452 211.275 50.4121 208.949 51.1421L175.845 61.5308L168.794 27.5596Z" fill="#FFB900" stroke="black" stroke-width="13" stroke-linejoin="round"/>
<circle cx="133.898" cy="134.347" r="67" fill="#FCE100"/>
</svg>
