<svg width="300" height="300" viewBox="0 0 300 300" fill="none" xmlns="http://www.w3.org/2000/svg">
<rect x="17.0002" y="63.0381" width="234" height="165" rx="30" fill="#AB7700"/>
<rect x="17.0002" y="88.0381" width="234" height="140" rx="30" fill="#B4B4B4"/>
<rect x="25.0002" y="98.0381" width="226" height="130" rx="30" fill="#DFDFDF"/>
<rect x="32" y="109" width="227" height="118" rx="30" fill="white"/>
<path d="M49.305 107.612C49.8417 105.919 50.5266 104.267 51.4335 102.656C52.3127 101.053 53.34 99.5004 54.506 98.0218C55.6999 96.5185 56.977 95.1225 58.4392 93.8008C59.8552 92.4544 61.3544 91.2236 62.9647 90.0754C64.575 88.9437 66.2686 87.9194 68.0363 87.0108C69.7854 86.0691 71.5623 85.3174 73.4224 84.6566C75.2456 84.0371 77.1243 83.5084 78.9844 83.1945C80.8446 82.8476 82.7418 82.6741 84.6112 82.6741C84.6112 82.6741 85.2961 82.6659 86.601 82.6659C87.8966 82.6576 89.803 82.6494 92.2185 82.6411C93.4401 82.6411 94.7913 82.6328 96.2442 82.6328C97.7065 82.6246 99.289 82.6163 100.964 82.6163C102.667 82.608 104.462 82.5998 106.36 82.5915C108.266 82.5915 110.246 82.5833 112.319 82.575C114.392 82.5667 116.567 82.5585 118.816 82.5502C121.047 82.542 123.369 82.5337 125.748 82.5254C126.942 82.5172 128.154 82.5172 129.376 82.5089C130.607 82.5089 131.828 82.5007 133.087 82.5007C134.336 82.4924 135.604 82.4924 136.881 82.4841C138.158 82.4841 139.445 82.4759 140.75 82.4759C142.045 82.4676 143.35 82.4594 144.674 82.4594C145.997 82.4511 147.32 82.4511 148.653 82.4428C150.004 82.4428 151.318 82.4346 152.688 82.4263C154.039 82.4263 155.409 82.4181 156.769 82.4181C158.12 82.4098 159.481 82.4015 160.869 82.4015C162.257 82.3933 163.627 82.3933 165.006 82.385C166.385 82.3768 167.782 82.3768 169.161 82.3685C170.54 82.3685 171.928 82.3602 173.326 82.3602C174.705 82.352 176.093 82.3437 177.472 82.3437C178.851 82.3355 180.248 82.3355 181.618 82.3272C183.006 82.3189 184.366 82.3189 185.755 82.3107C187.134 82.3107 188.503 82.3024 189.864 82.2942C191.224 82.2942 192.594 82.2859 193.936 82.2859C195.278 82.2776 196.629 82.2694 197.98 82.2694C199.303 82.2611 200.636 82.2611 201.959 82.2529C203.283 82.2529 204.588 82.2446 205.883 82.2363C207.188 82.2363 208.475 82.2281 209.743 82.2281C211.029 82.2198 212.297 82.2198 213.546 82.2116C214.786 82.2116 216.026 82.2033 217.248 82.2033C218.479 82.195 219.691 82.195 220.876 82.1868C223.254 82.1785 225.577 82.1703 227.817 82.162C230.056 82.1537 232.222 82.1455 234.304 82.1372C236.377 82.1289 238.367 82.1207 240.273 82.1207C242.171 82.1124 243.957 82.1042 245.65 82.0959C247.344 82.0959 248.926 82.0876 250.389 82.0794C251.842 82.0794 253.184 82.0711 254.405 82.0711C256.83 82.0629 258.736 82.0546 260.041 82.0463C261.337 82.0463 262.012 82.0381 262.012 82.0381C263.891 82.0381 265.659 82.2033 267.325 82.5254C269 82.8559 270.564 83.3432 272.007 83.9545C273.442 84.6071 274.765 85.3835 275.95 86.2756C277.153 87.2008 278.208 88.2086 279.124 89.3402C280.031 90.4802 280.79 91.7109 281.392 93.0491C282.012 94.379 282.428 95.775 282.715 97.2949C282.965 98.7735 283.067 100.335 282.956 101.946C282.854 103.556 282.567 105.225 282.058 106.926C282.058 106.926 281.577 108.455 280.79 111.181C280.383 112.535 279.911 114.179 279.328 116.054C278.782 117.929 278.162 120.085 277.449 122.406C277.107 123.555 276.746 124.769 276.376 126.033C276.005 127.272 275.644 128.577 275.219 129.915C274.849 131.228 274.441 132.6 274.006 133.996C273.608 135.4 273.201 136.829 272.757 138.283C272.331 139.737 271.878 141.19 271.461 142.694C271.008 144.197 270.564 145.701 270.11 147.237C269.657 148.765 269.194 150.293 268.741 151.838C268.278 153.383 267.834 154.936 267.371 156.489C266.917 158.025 266.436 159.578 265.992 161.123C265.529 162.667 265.066 164.195 264.631 165.724C264.178 167.243 263.715 168.747 263.28 170.242C262.845 171.754 262.401 173.216 261.975 174.678C261.55 176.132 261.124 177.561 260.708 178.948C260.282 180.361 259.865 181.716 259.486 183.029C259.107 184.384 258.69 185.681 258.348 186.928C257.977 188.175 257.589 189.398 257.256 190.554C256.589 192.875 255.941 195.006 255.395 196.89C254.812 198.781 254.34 200.425 253.924 201.78C253.147 204.489 252.684 206.042 252.684 206.042C252.184 207.736 251.471 209.404 250.629 210.99C249.759 212.626 248.741 214.187 247.612 215.674C246.446 217.161 245.16 218.581 243.762 219.903C242.374 221.25 240.856 222.489 239.265 223.637C237.664 224.752 235.979 225.793 234.212 226.71C232.472 227.618 230.658 228.395 228.798 229.031C226.965 229.667 225.077 230.179 223.18 230.493C221.292 230.848 219.386 231.022 217.507 231.013C217.507 231.013 216.813 231.038 215.49 231.022C214.185 231.038 212.251 231.038 209.798 231.022C208.567 231.022 207.207 231.038 205.735 231.022C204.255 231.038 202.654 231.038 200.941 231.038C199.229 231.013 197.406 231.005 195.5 231.013C193.575 231.038 191.557 231.022 189.456 231.038C187.346 231.013 185.162 231.038 182.886 231.013C180.628 231.038 178.277 231.022 175.871 231.038C174.668 231.038 173.446 231.038 172.197 231.005C170.966 231.038 169.716 231.013 168.449 231.038C167.19 231.038 165.904 231.038 164.608 231.013C163.322 231.005 162.017 231.038 160.702 231.038C159.388 231.038 158.065 231.038 156.723 231.038C155.39 231.038 154.039 231.038 152.697 231.038C151.337 231.038 149.967 231.022 148.607 231.038C147.246 231.038 145.867 231.038 144.488 231.038C143.1 231.005 141.721 231.038 140.333 231.038C138.926 231.038 137.547 231.022 136.141 231.038C134.753 231.038 133.346 231.038 131.948 231.038C130.542 231.013 129.144 231.038 127.747 231.038C126.34 231.038 124.924 231.005 123.518 231.013C122.139 231.038 120.732 231.038 119.334 231.005C117.937 231.038 116.549 231.038 115.142 231.022C113.735 231.013 112.366 231.022 110.996 231.038C109.608 231.013 108.238 231.038 106.859 231.005C105.49 231.005 104.148 231.038 102.787 231.038C101.436 231.022 100.094 231.038 98.7522 231.038C97.4196 231.038 96.0962 231.038 94.782 231.038C93.4494 231.005 92.163 231.038 90.8673 231.038C89.5717 231.005 88.2946 231.038 87.0359 231.005C85.7588 231.022 84.5187 231.038 83.2693 231.022C82.0384 231.038 80.8168 231.038 79.6045 231.038C77.2076 230.997 74.8476 231.038 72.5895 231.022C70.3129 231.022 68.1288 231.013 66.0188 231.038C63.918 231.038 61.9097 231.038 59.9848 231.038C58.0691 231.038 56.2459 231.038 54.5246 231.013C52.831 231.038 51.2299 231.022 49.7492 231.038C48.2777 231.005 46.908 231.038 45.6772 231.022C43.234 231.022 41.2997 231.038 39.9856 231.038C38.6714 231.038 37.9774 231.022 37.9774 231.022C36.0894 231.038 34.2663 230.823 32.6004 230.509C30.9254 230.171 29.3428 229.675 27.8899 229.039C26.4184 228.395 25.0857 227.627 23.9011 226.718C22.6888 225.809 21.643 224.793 20.699 223.662C19.8291 222.53 19.0702 221.299 18.4964 219.969C17.8949 218.648 17.4784 217.235 17.2286 215.756C16.9972 214.278 16.9417 212.708 17.062 211.106C17.2101 209.512 17.5525 207.868 18.08 206.183C18.08 206.183 18.5705 204.638 19.4219 201.945C19.8476 200.59 20.3659 198.963 20.9674 197.08C21.5597 195.205 22.226 193.09 22.9572 190.777C23.3273 189.629 23.7068 188.415 24.1047 187.176C24.4934 185.928 24.9006 184.64 25.3263 183.31C25.7428 181.988 26.1685 180.642 26.6127 179.237C27.0569 177.858 27.5012 176.437 27.9639 174.992C28.4174 173.538 28.8801 172.084 29.3521 170.589C29.8241 169.102 30.3053 167.599 30.7865 166.087C31.2585 164.567 31.749 163.047 32.2303 161.511C32.7207 159.974 33.2112 158.43 33.6925 156.902C34.183 155.357 34.6642 153.812 35.1547 152.276C35.6452 150.731 36.1264 149.219 36.6077 147.7C37.0889 146.171 37.5609 144.676 38.0421 143.181C38.5049 141.703 38.9676 140.24 39.4211 138.795C39.8838 137.349 40.3373 135.929 40.7722 134.541C41.2165 133.145 41.6514 131.782 42.0586 130.477C42.4843 129.147 42.8915 127.858 43.2895 126.611C43.6874 125.355 44.0576 124.158 44.4278 123.009C45.1589 120.696 45.8345 118.582 46.4268 116.707C47.0191 114.823 47.5373 113.18 47.9631 111.841C48.8145 109.14 49.305 107.612 49.305 107.612Z" fill="#FFD679"/>
<mask id="path-6-outside-1_106_35" maskUnits="userSpaceOnUse" x="3" y="49" width="295" height="197" fill="black">
<rect fill="white" x="3" y="49" width="295" height="197"/>
<path d="M223.313 63C235.36 63 245.604 70.7108 249.385 81.4658C249.78 81.4638 250.167 81.4641 250.546 81.4619C252 81.4619 253.343 81.4541 254.566 81.4541C256.992 81.4458 258.899 81.437 260.205 81.4287C261.49 81.4287 262.166 81.421 262.178 81.4209C264.058 81.4209 265.826 81.5876 267.493 81.9121C269.17 82.245 270.735 82.7357 272.18 83.3516C273.615 84.0091 274.94 84.7916 276.125 85.6904C277.329 86.6225 278.384 87.6382 279.301 88.7783C280.209 89.9269 280.969 91.1673 281.57 92.5156C282.191 93.8554 282.608 95.2618 282.895 96.793C283.145 98.2828 283.246 99.8565 283.135 101.479C283.033 103.102 282.747 104.784 282.237 106.498C282.233 106.513 281.751 108.051 280.968 110.784C280.56 112.149 280.088 113.805 279.505 115.694C278.959 117.584 278.338 119.756 277.625 122.095C277.283 123.252 276.921 124.476 276.551 125.749C276.181 126.997 275.82 128.312 275.394 129.66C275.023 130.984 274.615 132.366 274.18 133.772C273.782 135.187 273.374 136.627 272.93 138.092C272.504 139.557 272.05 141.021 271.633 142.536C271.179 144.051 270.735 145.565 270.281 147.113C269.828 148.653 269.364 150.194 268.91 151.75C268.447 153.306 268.003 154.871 267.54 156.436C267.086 157.984 266.605 159.548 266.16 161.104C265.697 162.661 265.234 164.201 264.799 165.74C264.345 167.272 263.882 168.787 263.446 170.293C263.011 171.816 262.567 173.29 262.141 174.763C261.715 176.227 261.289 177.667 260.872 179.065C260.446 180.489 260.029 181.853 259.65 183.177C259.27 184.542 258.854 185.849 258.511 187.105C258.141 188.362 257.751 189.594 257.418 190.759C256.751 193.097 256.103 195.245 255.557 197.143C254.973 199.049 254.501 200.705 254.084 202.07C253.313 204.776 252.851 206.337 252.843 206.364C252.343 208.07 251.63 209.753 250.787 211.351C249.917 212.998 248.897 214.571 247.768 216.069C246.601 217.567 245.314 218.999 243.915 220.331C242.526 221.687 241.008 222.936 239.415 224.093C237.813 225.216 236.127 226.265 234.359 227.188C232.618 228.104 230.802 228.886 228.941 229.527C227.107 230.168 225.218 230.685 223.319 231.001C221.43 231.359 219.523 231.534 217.643 231.525C217.643 231.525 216.948 231.55 215.624 231.533C214.318 231.55 212.382 231.55 209.928 231.533C208.696 231.533 207.335 231.55 205.862 231.533C204.381 231.55 202.779 231.55 201.066 231.55C199.352 231.525 197.528 231.517 195.62 231.525C193.694 231.55 191.675 231.533 189.573 231.55C187.462 231.525 185.276 231.55 182.998 231.525C180.739 231.55 178.386 231.533 175.978 231.55C174.774 231.55 173.552 231.55 172.302 231.517C171.07 231.55 169.82 231.525 168.551 231.55C167.291 231.55 166.004 231.55 164.707 231.525C163.42 231.517 162.115 231.55 160.8 231.55H152.789C151.428 231.55 150.057 231.533 148.695 231.55H144.574C143.185 231.517 141.805 231.55 140.416 231.55C139.009 231.55 137.628 231.533 136.221 231.55H132.027C130.619 231.525 129.22 231.55 127.821 231.55C126.414 231.55 124.997 231.517 123.589 231.525C122.209 231.55 120.802 231.55 119.403 231.517C118.005 231.55 116.616 231.55 115.208 231.533C113.801 231.525 112.43 231.533 111.06 231.55C109.671 231.525 108.3 231.55 106.92 231.517C105.549 231.517 104.206 231.55 102.845 231.55C101.493 231.533 100.15 231.55 98.8078 231.55H94.8341C93.5007 231.517 92.2135 231.55 90.9172 231.55C89.6207 231.517 88.3426 231.55 87.0832 231.517C85.8052 231.533 84.5638 231.55 83.3136 231.533C82.0821 231.55 80.8597 231.55 79.6466 231.55C77.2482 231.508 74.8867 231.55 72.6271 231.533C70.349 231.533 68.1634 231.525 66.0519 231.55H60.0138C58.0969 231.55 56.2724 231.55 54.55 231.525C52.8554 231.55 51.2533 231.533 49.7716 231.55C48.2992 231.517 46.9281 231.55 45.6965 231.533C43.2517 231.533 41.3162 231.55 40.0011 231.55C38.6861 231.55 37.9914 231.533 37.9914 231.533C36.1022 231.55 34.2774 231.334 32.6105 231.018C30.9344 230.676 29.3505 230.177 27.8966 229.536C26.4243 228.887 25.0908 228.113 23.9054 227.197C22.6923 226.282 21.6459 225.257 20.7013 224.117C19.8309 222.977 19.0713 221.737 18.4972 220.397C17.8953 219.066 17.4787 217.642 17.2287 216.152C16.9972 214.663 16.9413 213.081 17.0617 211.467C17.1902 210.074 17.4659 208.643 17.881 207.18C17.3065 204.961 17.0002 202.633 17.0002 200.234V90.6309C17.0003 75.3708 29.371 63.0001 44.631 63H223.313Z"/>
</mask>
<path d="M223.313 63L223.313 49H223.313V63ZM249.385 81.4658L236.177 86.1087L239.484 95.5164L249.456 95.4656L249.385 81.4658ZM250.546 81.4619V67.4619H250.506L250.466 67.4621L250.546 81.4619ZM254.566 81.4541L254.566 95.4541L254.59 95.4541L254.614 95.454L254.566 81.4541ZM260.205 81.4287V67.4287H260.161L260.116 67.429L260.205 81.4287ZM262.178 81.4209V67.4209H262.092L262.007 67.4219L262.178 81.4209ZM267.493 81.9121L270.221 68.1803L270.195 68.1752L270.169 68.1702L267.493 81.9121ZM272.18 83.3516L278.01 70.6233L277.841 70.5459L277.67 70.473L272.18 83.3516ZM276.125 85.6904L284.696 74.6209L284.641 74.5777L284.584 74.535L276.125 85.6904ZM279.301 88.7783L290.286 80.0986L290.249 80.0519L290.211 80.0055L279.301 88.7783ZM281.57 92.5156L268.787 98.223L268.826 98.3107L268.866 98.3979L281.57 92.5156ZM282.895 96.793L296.702 94.4757L296.68 94.3442L296.655 94.2133L282.895 96.793ZM283.135 101.479L269.168 100.523L269.165 100.563L269.162 100.602L283.135 101.479ZM282.237 106.498L295.6 110.676L295.629 110.58L295.658 110.485L282.237 106.498ZM280.968 110.784L294.383 114.789L294.405 114.715L294.426 114.641L280.968 110.784ZM279.505 115.694L266.128 111.564L266.091 111.684L266.056 111.805L279.505 115.694ZM277.625 122.095L264.234 118.012L264.217 118.065L264.202 118.119L277.625 122.095ZM276.551 125.749L289.973 129.731L289.983 129.695L289.994 129.66L276.551 125.749ZM275.394 129.66L262.044 125.442L261.974 125.663L261.912 125.886L275.394 129.66ZM274.18 133.772L260.806 129.634L260.752 129.806L260.703 129.98L274.18 133.772ZM272.93 138.092L259.533 134.026L259.509 134.104L259.487 134.182L272.93 138.092ZM271.633 142.536L285.044 146.554L285.09 146.402L285.131 146.25L271.633 142.536ZM270.281 147.113L283.71 151.071L283.713 151.061L283.716 151.051L270.281 147.113ZM268.91 151.75L282.329 155.742L282.34 155.705L282.351 155.669L268.91 151.75ZM267.54 156.436L254.116 152.463L254.111 152.48L254.105 152.497L267.54 156.436ZM266.16 161.104L279.579 165.097L279.601 165.023L279.622 164.949L266.16 161.104ZM264.799 165.74L278.222 169.718L278.247 169.633L278.271 169.549L264.799 165.74ZM263.446 170.293L249.997 166.407L249.991 166.427L249.985 166.446L263.446 170.293ZM262.141 174.763L275.584 178.672L275.587 178.662L275.59 178.652L262.141 174.763ZM260.872 179.065L274.284 183.08L274.287 183.072L274.289 183.064L260.872 179.065ZM259.65 183.177L246.193 179.316L246.177 179.37L246.162 179.425L259.65 183.177ZM258.511 187.105L271.94 191.064L271.98 190.926L272.018 190.788L258.511 187.105ZM257.418 190.759L243.958 186.908L243.955 186.92L257.418 190.759ZM255.557 197.143L268.944 201.24L268.978 201.129L269.01 201.016L255.557 197.143ZM254.084 202.07L240.694 197.982L240.656 198.108L240.62 198.234L254.084 202.07ZM252.843 206.364L239.418 202.393L239.413 202.41L239.408 202.427L252.843 206.364ZM250.787 211.351L263.166 217.89L263.171 217.881L250.787 211.351ZM247.768 216.069L258.813 224.672L258.88 224.586L258.945 224.499L247.768 216.069ZM243.915 220.331L234.261 210.193L234.197 210.253L234.134 210.315L243.915 220.331ZM239.415 224.093L247.454 235.555L247.549 235.488L247.642 235.42L239.415 224.093ZM234.359 227.188L227.877 214.779L227.86 214.788L227.843 214.797L234.359 227.188ZM228.941 229.527L224.383 216.29L224.352 216.301L224.322 216.311L228.941 229.527ZM223.319 231.001L221.019 217.191L220.866 217.217L220.714 217.246L223.319 231.001ZM217.643 231.525L217.705 217.526L217.427 217.524L217.15 217.534L217.643 231.525ZM215.624 231.533L215.8 217.534L215.623 217.532L215.446 217.534L215.624 231.533ZM209.928 231.533L210.023 217.534L209.975 217.533L209.928 217.533L209.928 231.533ZM205.862 231.533L206.021 217.534L205.863 217.532L205.705 217.534L205.862 231.533ZM201.066 231.55L200.862 245.548L200.964 245.55H201.066V231.55ZM195.62 231.525L195.559 217.526L195.499 217.526L195.439 217.527L195.62 231.525ZM189.573 231.55L189.408 245.549L189.546 245.55L189.684 245.549L189.573 231.55ZM182.998 231.525L183.152 217.526L182.998 217.525L182.844 217.526L182.998 231.525ZM175.978 231.55L175.978 245.55L176.026 245.55L176.074 245.549L175.978 231.55ZM172.302 231.517L172.675 217.522L172.299 217.512L171.924 217.522L172.302 231.517ZM168.551 231.55V245.55H168.689L168.826 245.547L168.551 231.55ZM164.707 231.525L164.977 217.528L164.887 217.526L164.798 217.526L164.707 231.525ZM160.8 231.55L160.8 245.55L160.8 245.55L160.8 231.55ZM148.695 231.55V245.55H148.781L148.867 245.549L148.695 231.55ZM144.574 231.55L144.239 245.546L144.407 245.55H144.574V231.55ZM140.416 231.55L140.416 245.55H140.416V231.55ZM136.221 231.55V245.55H136.304L136.386 245.549L136.221 231.55ZM132.027 231.55L131.778 245.548L131.902 245.55H132.027V231.55ZM127.821 231.55L127.821 245.55H127.821V231.55ZM123.589 231.525L123.506 217.526L123.421 217.526L123.336 217.528L123.589 231.525ZM119.403 231.517L119.737 217.521L119.403 217.513L119.07 217.521L119.403 231.517ZM115.208 231.533L115.374 217.534L115.332 217.534L115.291 217.533L115.208 231.533ZM111.06 231.55L110.808 245.548L111.019 245.551L111.23 245.549L111.06 231.55ZM106.92 231.517L107.258 217.521L107.089 217.517H106.92V231.517ZM102.845 231.55L102.673 245.549L102.759 245.55H102.845V231.55ZM98.8078 231.55L98.8078 245.55L98.8078 245.55L98.8078 231.55ZM94.8341 231.55L94.4849 245.545L94.6595 245.55H94.8341V231.55ZM90.9172 231.55L90.5578 245.545L90.7374 245.55H90.9172V231.55ZM87.0832 231.517L87.4531 217.521L87.177 217.514L86.9008 217.518L87.0832 231.517ZM83.3136 231.533L83.5 217.534L83.3123 217.532L83.1245 217.534L83.3136 231.533ZM79.6466 231.55L79.4038 245.548L79.5252 245.55H79.6466V231.55ZM72.6271 231.533L72.7302 217.534L72.6787 217.533H72.6271V231.533ZM66.0519 231.55V245.55H66.1347L66.2175 245.549L66.0519 231.55ZM54.55 231.525L54.7529 217.527L54.5483 217.524L54.3437 217.527L54.55 231.525ZM49.7716 231.55L49.4552 245.546L49.692 245.552L49.9289 245.549L49.7716 231.55ZM45.6965 231.533L45.8856 217.534L45.791 217.533L45.6965 217.533L45.6965 231.533ZM40.0011 231.55L40.0011 245.55L40.0011 245.55L40.0011 231.55ZM37.9914 231.533L38.3258 217.537L38.097 217.532L37.8681 217.534L37.9914 231.533ZM32.6105 231.018L29.8175 244.736L29.9091 244.755L30.0008 244.772L32.6105 231.018ZM27.8966 229.536L22.2487 242.346L22.25 242.347L27.8966 229.536ZM23.9054 227.197L32.463 216.117L32.4011 216.069L32.3387 216.022L23.9054 227.197ZM20.7013 224.117L9.57344 232.612L9.74251 232.834L9.92026 233.049L20.7013 224.117ZM18.4972 220.397L31.3656 214.883L31.3112 214.757L31.2544 214.631L18.4972 220.397ZM17.2287 216.152L3.39471 218.302L3.40774 218.386L3.42179 218.47L17.2287 216.152ZM17.0617 211.467L3.12087 210.181L3.10958 210.303L3.10043 210.426L17.0617 211.467ZM17.881 207.18L31.3494 211.001L32.386 207.348L31.4342 203.671L17.881 207.18ZM17.0002 90.6309L3.00016 90.6307V90.6309H17.0002ZM44.631 63L44.631 49L44.6309 49L44.631 63ZM223.313 63L223.313 77C229.232 77 234.305 80.7825 236.177 86.1087L249.385 81.4658L262.593 76.823C256.904 60.6392 241.488 49 223.313 49L223.313 63ZM249.385 81.4658L249.456 95.4656C249.509 95.4654 250.475 95.4625 250.626 95.4617L250.546 81.4619L250.466 67.4621C249.859 67.4656 250.051 67.4623 249.314 67.466L249.385 81.4658ZM250.546 81.4619V95.4619C251.296 95.4619 252.014 95.4599 252.683 95.4579C253.36 95.456 253.979 95.4541 254.566 95.4541L254.566 81.4541L254.566 67.4541C253.93 67.4541 253.266 67.4561 252.602 67.4581C251.931 67.46 251.25 67.4619 250.546 67.4619V81.4619ZM254.566 81.4541L254.614 95.454C257.046 95.4457 258.969 95.4369 260.294 95.4284L260.205 81.4287L260.116 67.429C258.83 67.4372 256.938 67.4459 254.518 67.4542L254.566 81.4541ZM260.205 81.4287V95.4287C261.542 95.4287 262.275 95.4208 262.349 95.4199L262.178 81.4209L262.007 67.4219C262.057 67.4213 261.438 67.4287 260.205 67.4287V81.4287ZM262.178 81.4209V95.4209C263.227 95.4209 264.097 95.5136 264.818 95.654L267.493 81.9121L270.169 68.1702C267.556 67.6615 264.888 67.4209 262.178 67.4209V81.4209ZM267.493 81.9121L264.766 95.6439C265.496 95.7889 266.136 95.9939 266.69 96.2301L272.18 83.3516L277.67 70.473C275.335 69.4774 272.843 68.7012 270.221 68.1803L267.493 81.9121ZM272.18 83.3516L266.35 96.0798C266.931 96.346 267.362 96.615 267.666 96.8458L276.125 85.6904L284.584 74.535C282.518 72.9681 280.3 71.6721 278.01 70.6233L272.18 83.3516ZM276.125 85.6904L267.554 96.76C267.984 97.093 268.231 97.3528 268.391 97.5512L279.301 88.7783L290.211 80.0055C288.537 77.9236 286.674 76.1521 284.696 74.6209L276.125 85.6904ZM279.301 88.7783L268.316 97.4581C268.532 97.7305 268.677 97.9776 268.787 98.223L281.57 92.5156L294.354 86.8083C293.26 84.357 291.885 82.1232 290.286 80.0986L279.301 88.7783ZM281.57 92.5156L268.866 98.3979C268.907 98.4863 269.017 98.7447 269.134 99.3727L282.895 96.793L296.655 94.2133C296.199 91.7789 295.475 89.2245 294.275 86.6334L281.57 92.5156ZM282.895 96.793L269.088 99.1103C269.174 99.6241 269.197 100.095 269.168 100.523L283.135 101.479L297.102 102.436C297.295 99.6176 297.115 96.9415 296.702 94.4757L282.895 96.793ZM283.135 101.479L269.162 100.602C269.126 101.187 269.021 101.825 268.817 102.511L282.237 106.498L295.658 110.485C296.472 107.743 296.94 105.017 297.107 102.357L283.135 101.479ZM282.237 106.498L268.875 102.321C268.876 102.317 268.874 102.324 268.872 102.33C268.87 102.336 268.868 102.344 268.865 102.353C268.859 102.372 268.852 102.396 268.842 102.427C268.823 102.488 268.797 102.573 268.764 102.68C268.698 102.895 268.605 103.2 268.487 103.591C268.252 104.373 267.919 105.499 267.51 106.927L280.968 110.784L294.426 114.641C294.8 113.337 295.099 112.327 295.302 111.653C295.403 111.316 295.48 111.063 295.53 110.9C295.555 110.818 295.574 110.759 295.585 110.722C295.591 110.704 295.595 110.691 295.597 110.684C295.599 110.678 295.599 110.677 295.6 110.676L282.237 106.498ZM280.968 110.784L267.553 106.779C267.076 108.379 266.693 109.735 266.128 111.564L279.505 115.694L292.882 119.825C293.484 117.876 294.045 115.919 294.383 114.789L280.968 110.784ZM279.505 115.694L266.056 111.805C265.494 113.749 264.91 115.795 264.234 118.012L277.625 122.095L291.017 126.178C291.767 123.717 292.423 121.419 292.954 119.584L279.505 115.694ZM277.625 122.095L264.202 118.119C263.856 119.285 263.488 120.533 263.108 121.839L276.551 125.749L289.994 129.66C290.355 128.418 290.709 127.219 291.049 126.071L277.625 122.095ZM276.551 125.749L263.129 121.767C262.642 123.41 262.431 124.218 262.044 125.442L275.394 129.66L288.743 133.878C289.208 132.406 289.719 130.585 289.973 129.731L276.551 125.749ZM275.394 129.66L261.912 125.886C261.578 127.078 261.206 128.339 260.806 129.634L274.18 133.772L287.554 137.911C288.024 136.393 288.468 134.889 288.875 133.434L275.394 129.66ZM274.18 133.772L260.703 129.98C260.305 131.397 259.932 132.713 259.533 134.026L272.93 138.092L286.327 142.157C286.817 140.542 287.259 138.978 287.656 137.565L274.18 133.772ZM272.93 138.092L259.487 134.182C259.161 135.303 258.578 137.209 258.134 138.822L271.633 142.536L285.131 146.25C285.521 144.834 285.847 143.81 286.373 142.001L272.93 138.092ZM271.633 142.536L258.222 138.519C257.754 140.079 257.299 141.633 256.847 143.175L270.281 147.113L283.716 151.051C284.172 149.498 284.604 148.022 285.044 146.554L271.633 142.536ZM270.281 147.113L256.852 143.156C256.436 144.567 255.923 146.276 255.47 147.831L268.91 151.75L282.351 155.669C282.805 154.111 283.219 152.739 283.71 151.071L270.281 147.113ZM268.91 151.75L255.492 147.758C255.124 148.992 254.42 151.433 254.116 152.463L267.54 156.436L280.965 160.408C281.586 158.309 281.77 157.621 282.329 155.742L268.91 151.75ZM267.54 156.436L254.105 152.497C253.742 153.736 253.142 155.707 252.699 157.26L266.16 161.104L279.622 164.949C280.068 163.389 280.431 162.231 280.975 160.374L267.54 156.436ZM266.16 161.104L252.742 157.112C252.296 158.61 251.796 160.274 251.327 161.932L264.799 165.74L278.271 169.549C278.673 168.127 279.099 166.712 279.579 165.097L266.16 161.104ZM264.799 165.74L251.376 161.763C250.975 163.115 250.444 164.859 249.997 166.407L263.446 170.293L276.896 174.179C277.32 172.714 277.715 171.428 278.222 169.718L264.799 165.74ZM263.446 170.293L249.985 166.446C249.519 168.077 249.216 169.062 248.692 170.874L262.141 174.763L275.59 178.652C275.918 177.517 276.503 175.555 276.908 174.14L263.446 170.293ZM262.141 174.763L248.698 170.853C248.283 172.279 247.867 173.687 247.455 175.067L260.872 179.065L274.289 183.064C274.711 181.648 275.146 180.176 275.584 178.672L262.141 174.763ZM260.872 179.065L247.46 175.051C247.066 176.369 246.602 177.89 246.193 179.316L259.65 183.177L273.107 187.038C273.457 185.817 273.827 184.608 274.284 183.08L260.872 179.065ZM259.65 183.177L246.162 179.425C246.011 179.967 245.849 180.512 245.646 181.196C245.456 181.833 245.223 182.62 245.004 183.423L258.511 187.105L272.018 190.788C272.142 190.334 272.287 189.839 272.487 189.168C272.673 188.542 272.909 187.751 273.137 186.929L259.65 183.177ZM258.511 187.105L245.082 183.147C244.857 183.911 244.272 185.811 243.958 186.908L257.418 190.759L270.878 194.61C271.231 193.376 271.424 192.814 271.94 191.064L258.511 187.105ZM257.418 190.759L243.955 186.92C243.23 189.461 242.781 190.917 242.103 193.269L255.557 197.143L269.01 201.016C269.426 199.573 270.272 196.734 270.882 194.597L257.418 190.759ZM255.557 197.143L242.17 193.045C241.857 194.068 241.576 195.015 241.332 195.843C241.079 196.697 240.879 197.376 240.694 197.982L254.084 202.07L267.474 206.158C267.706 205.399 267.95 204.568 268.184 203.776C268.426 202.958 268.673 202.123 268.944 201.24L255.557 197.143ZM254.084 202.07L240.62 198.234C240.242 199.56 239.941 200.602 239.735 201.311C239.632 201.665 239.552 201.936 239.499 202.118C239.446 202.299 239.418 202.392 239.418 202.393L252.843 206.364L266.268 210.336C266.267 210.338 266.269 210.332 266.27 210.328C266.272 210.323 266.273 210.317 266.276 210.308C266.281 210.292 266.287 210.27 266.295 210.243C266.312 210.187 266.335 210.108 266.365 210.006C266.425 209.803 266.51 209.51 266.62 209.132C266.84 208.378 267.155 207.286 267.548 205.907L254.084 202.07ZM252.843 206.364L239.408 202.427C239.213 203.092 238.886 203.905 238.404 204.82L250.787 211.351L263.171 217.881C264.374 215.6 265.473 213.049 266.278 210.302L252.843 206.364ZM250.787 211.351L238.408 204.811C237.926 205.724 237.323 206.668 236.59 207.64L247.768 216.069L258.945 224.499C260.472 222.475 261.907 220.273 263.166 217.89L250.787 211.351ZM247.768 216.069L236.723 207.466C235.964 208.441 235.138 209.357 234.261 210.193L243.915 220.331L253.57 230.469C255.489 228.642 257.238 226.694 258.813 224.672L247.768 216.069ZM243.915 220.331L234.134 210.315C233.315 211.115 232.336 211.931 231.188 212.765L239.415 224.093L247.642 235.42C249.68 233.941 251.738 232.26 253.697 230.347L243.915 220.331ZM239.415 224.093L231.377 212.631C230.199 213.456 229.033 214.176 227.877 214.779L234.359 227.188L240.84 239.598C243.222 238.354 245.427 236.976 247.454 235.555L239.415 224.093ZM234.359 227.188L227.843 214.797C226.74 215.377 225.579 215.878 224.383 216.29L228.941 229.527L233.498 242.765C236.025 241.895 238.495 240.831 240.874 239.58L234.359 227.188ZM228.941 229.527L224.322 216.311C223.087 216.743 221.982 217.031 221.019 217.191L223.319 231.001L225.62 244.811C228.454 244.339 231.127 243.594 233.56 242.743L228.941 229.527ZM223.319 231.001L220.714 217.246C219.694 217.439 218.679 217.53 217.705 217.526L217.643 231.525L217.581 245.525C220.366 245.538 223.167 245.279 225.925 244.756L223.319 231.001ZM217.643 231.525C217.15 217.534 217.151 217.534 217.151 217.534C217.152 217.534 217.152 217.534 217.153 217.534C217.153 217.534 217.154 217.534 217.155 217.534C217.157 217.534 217.158 217.534 217.16 217.534C217.163 217.534 217.165 217.534 217.168 217.533C217.173 217.533 217.178 217.533 217.182 217.533C217.19 217.533 217.195 217.533 217.198 217.532C217.203 217.532 217.198 217.533 217.182 217.533C217.151 217.534 217.077 217.535 216.964 217.537C216.736 217.539 216.345 217.541 215.8 217.534L215.624 231.533L215.448 245.532C216.227 245.542 216.846 245.54 217.296 245.535C217.522 245.532 217.705 245.528 217.845 245.525C217.915 245.523 217.974 245.522 218.023 245.52C218.047 245.52 218.068 245.519 218.087 245.518C218.097 245.518 218.105 245.518 218.113 245.517C218.117 245.517 218.121 245.517 218.125 245.517C218.127 245.517 218.128 245.517 218.13 245.517C218.131 245.517 218.132 245.517 218.133 245.517C218.133 245.517 218.134 245.517 218.134 245.517C218.135 245.517 218.135 245.517 217.643 231.525ZM215.624 231.533L215.446 217.534C214.278 217.549 212.45 217.55 210.023 217.534L209.928 231.533L209.833 245.533C212.314 245.55 214.359 245.55 215.803 245.532L215.624 231.533ZM209.928 231.533L209.928 217.533C208.461 217.533 207.403 217.55 206.021 217.534L205.862 231.533L205.704 245.532C207.267 245.55 208.932 245.533 209.928 245.533L209.928 231.533ZM205.862 231.533L205.705 217.534C204.317 217.55 202.798 217.55 201.066 217.55V231.55V245.55C202.759 245.55 204.444 245.55 206.02 245.532L205.862 231.533ZM201.066 231.55L201.27 217.551C199.456 217.525 197.542 217.517 195.559 217.526L195.62 231.525L195.681 245.525C197.514 245.517 199.249 245.525 200.862 245.548L201.066 231.55ZM195.62 231.525L195.439 217.527C193.377 217.553 192.056 217.53 189.463 217.55L189.573 231.55L189.684 245.549C191.295 245.537 194.011 245.547 195.802 245.524L195.62 231.525ZM189.573 231.55L189.739 217.551C188.585 217.537 187.426 217.537 186.347 217.538C185.24 217.538 184.201 217.538 183.152 217.526L182.998 231.525L182.845 245.525C184.074 245.538 185.266 245.538 186.35 245.538C187.461 245.537 188.45 245.538 189.408 245.549L189.573 231.55ZM182.998 231.525L182.844 217.526C180.452 217.553 178.727 217.53 175.881 217.55L175.978 231.55L176.074 245.549C178.044 245.536 181.025 245.548 183.153 245.525L182.998 231.525ZM175.978 231.55L175.978 217.55C174.746 217.55 173.708 217.549 172.675 217.522L172.302 231.517L171.929 245.512C173.396 245.551 174.802 245.55 175.978 245.55L175.978 231.55ZM172.302 231.517L171.924 217.522C171.507 217.533 171.05 217.535 170.418 217.536C169.836 217.537 169.064 217.537 168.275 217.553L168.551 231.55L168.826 245.547C169.307 245.538 169.794 245.537 170.463 245.536C171.081 245.535 171.865 245.534 172.68 245.511L172.302 231.517ZM168.551 231.55V217.55C167.264 217.55 166.115 217.55 164.977 217.528L164.707 231.525L164.438 245.523C165.893 245.551 167.319 245.55 168.551 245.55V231.55ZM164.707 231.525L164.798 217.526C163.797 217.519 161.299 217.55 160.8 217.55L160.8 231.55L160.8 245.55C162.931 245.55 163.044 245.515 164.617 245.525L164.707 231.525ZM160.8 231.55V217.55H152.789V231.55V245.55H160.8V231.55ZM152.789 231.55V217.55C151.67 217.55 149.986 217.533 148.524 217.551L148.695 231.55L148.867 245.549C150.128 245.533 151.186 245.55 152.789 245.55V231.55ZM148.695 231.55V217.55H144.574V231.55V245.55H148.695V231.55ZM144.574 231.55L144.91 217.554C143.325 217.516 141.329 217.55 140.416 217.55V231.55V245.55C142.281 245.55 143.045 245.517 144.239 245.546L144.574 231.55ZM140.416 231.55L140.416 217.55C139.244 217.55 137.559 217.533 136.055 217.551L136.221 231.55L136.386 245.549C137.698 245.533 138.773 245.55 140.416 245.55L140.416 231.55ZM136.221 231.55V217.55H132.027V231.55V245.55H136.221V231.55ZM132.027 231.55L132.275 217.552C130.723 217.524 128.867 217.55 127.821 217.55V231.55V245.55C129.573 245.55 130.515 245.525 131.778 245.548L132.027 231.55ZM127.821 231.55L127.821 217.55C127.169 217.55 124.646 217.519 123.506 217.526L123.589 231.525L123.672 245.525C125.347 245.515 125.658 245.55 127.821 245.55L127.821 231.55ZM123.589 231.525L123.336 217.528C122.128 217.55 120.918 217.549 119.737 217.521L119.403 231.517L119.07 245.513C120.686 245.551 122.29 245.551 123.842 245.523L123.589 231.525ZM119.403 231.517L119.07 217.521C117.89 217.549 116.676 217.55 115.374 217.534L115.208 231.533L115.043 245.532C116.555 245.55 118.12 245.551 119.737 245.513L119.403 231.517ZM115.208 231.533L115.291 217.533C113.775 217.524 112.316 217.534 110.89 217.551L111.06 231.55L111.23 245.549C112.544 245.533 113.826 245.525 115.125 245.533L115.208 231.533ZM111.06 231.55L111.311 217.552C110.476 217.537 109.656 217.537 109.007 217.536C108.313 217.535 107.77 217.533 107.258 217.521L106.92 231.517L106.582 245.513C107.45 245.533 108.282 245.535 108.966 245.536C109.695 245.537 110.254 245.538 110.808 245.548L111.06 231.55ZM106.92 231.517V217.517C106.135 217.517 105.371 217.526 104.707 217.534C104.016 217.543 103.426 217.55 102.845 217.55V231.55V245.55C103.626 245.55 104.387 245.54 105.051 245.532C105.741 245.524 106.335 245.517 106.92 245.517V231.517ZM102.845 231.55L103.017 217.551C101.565 217.533 99.9056 217.55 98.8077 217.55L98.8078 231.55L98.8078 245.55C100.395 245.55 101.421 245.533 102.673 245.549L102.845 231.55ZM98.8078 231.55V217.55H94.8341V231.55V245.55H98.8078V231.55ZM94.8341 231.55L95.1834 217.554C93.6478 217.516 91.7114 217.55 90.9172 217.55V231.55V245.55C92.7157 245.55 93.3537 245.517 94.4849 245.545L94.8341 231.55ZM90.9172 231.55L91.2765 217.554C90.4188 217.532 89.5961 217.533 88.9858 217.533C88.3146 217.533 87.8664 217.532 87.4531 217.521L87.0832 231.517L86.7132 245.512C87.5594 245.534 88.3799 245.533 88.9868 245.533C89.6544 245.533 90.119 245.534 90.5578 245.545L90.9172 231.55ZM87.0832 231.517L86.9008 217.518C85.5869 217.535 84.5334 217.548 83.5 217.534L83.3136 231.533L83.1273 245.532C84.5943 245.551 86.0235 245.532 87.2655 245.515L87.0832 231.517ZM83.3136 231.533L83.1245 217.534C82.0032 217.55 80.8752 217.55 79.6466 217.55V231.55V245.55C80.8442 245.55 82.161 245.55 83.5028 245.532L83.3136 231.533ZM79.6466 231.55L79.8895 217.552C77.5862 217.512 74.3336 217.545 72.7302 217.534L72.6271 231.533L72.524 245.533C75.4398 245.554 76.9101 245.504 79.4038 245.548L79.6466 231.55ZM72.6271 231.533V217.533C70.4256 217.533 68.1068 217.525 65.8864 217.551L66.0519 231.55L66.2175 245.549C68.2199 245.525 70.2723 245.533 72.6271 245.533V231.533ZM66.0519 231.55V217.55H60.0138V231.55V245.55H66.0519V231.55ZM60.0138 231.55V217.55C58.07 217.55 56.3539 217.55 54.7529 217.527L54.55 231.525L54.3471 245.524C56.191 245.551 58.1237 245.55 60.0138 245.55V231.55ZM54.55 231.525L54.3437 217.527C52.1385 217.559 52.049 217.523 49.6144 217.551L49.7716 231.55L49.9289 245.549C50.4575 245.543 53.5722 245.541 54.7562 245.524L54.55 231.525ZM49.7716 231.55L50.0881 217.553C49.161 217.532 48.2989 217.533 47.6007 217.535C46.8437 217.538 46.3524 217.541 45.8856 217.534L45.6965 231.533L45.5073 245.532C48.0077 245.566 47.5029 245.502 49.4552 245.546L49.7716 231.55ZM45.6965 231.533L45.6965 217.533C44.4431 217.533 43.3238 217.537 42.3642 217.542C41.3875 217.546 40.6191 217.55 40.0011 217.55L40.0011 231.55L40.0011 245.55C40.6982 245.55 41.5551 245.545 42.486 245.541C43.4342 245.537 44.505 245.533 45.6965 245.533L45.6965 231.533ZM40.0011 231.55V217.55C39.4025 217.55 38.9574 217.546 38.675 217.543C38.5338 217.541 38.4333 217.539 38.3747 217.538C38.3455 217.538 38.3266 217.537 38.3184 217.537C38.3143 217.537 38.3129 217.537 38.3141 217.537C38.3147 217.537 38.316 217.537 38.318 217.537C38.3189 217.537 38.3201 217.537 38.3214 217.537C38.322 217.537 38.3227 217.537 38.3235 217.537C38.3239 217.537 38.3242 217.537 38.3246 217.537C38.3248 217.537 38.3251 217.537 38.3252 217.537C38.3255 217.537 38.3258 217.537 37.9914 231.533C37.6569 245.529 37.6572 245.529 37.6575 245.529C37.6577 245.529 37.658 245.529 37.6582 245.529C37.6586 245.529 37.6591 245.529 37.6595 245.529C37.6604 245.529 37.6614 245.529 37.6624 245.529C37.6644 245.529 37.6665 245.529 37.6689 245.529C37.6735 245.53 37.6789 245.53 37.6849 245.53C37.6969 245.53 37.7117 245.53 37.7292 245.531C37.7641 245.532 37.8098 245.532 37.8662 245.533C37.979 245.536 38.1344 245.538 38.3313 245.54C38.725 245.545 39.2847 245.55 40.0011 245.55V231.55ZM37.9914 231.533L37.8681 217.534C37.1044 217.54 36.2177 217.452 35.2202 217.263L32.6105 231.018L30.0008 244.772C32.3372 245.215 35.0999 245.559 38.1147 245.533L37.9914 231.533ZM32.6105 231.018L35.4035 217.299C34.6473 217.145 34.0258 216.938 33.5433 216.725L27.8966 229.536L22.25 242.347C24.6752 243.416 27.2216 244.208 29.8175 244.736L32.6105 231.018ZM27.8966 229.536L33.5446 216.726C32.9774 216.476 32.6453 216.258 32.463 216.117L23.9054 227.197L15.3479 238.277C17.5362 239.968 19.8712 241.298 22.2487 242.346L27.8966 229.536ZM23.9054 227.197L32.3387 216.022C32.0688 215.819 31.7978 215.567 31.4824 215.186L20.7013 224.117L9.92026 233.049C11.494 234.948 13.3157 236.745 15.4721 238.372L23.9054 227.197ZM20.7013 224.117L31.8292 215.622C31.5385 215.241 31.4123 214.992 31.3656 214.883L18.4972 220.397L5.62889 225.912C6.73042 228.482 8.12334 230.713 9.57344 232.612L20.7013 224.117ZM18.4972 220.397L31.2544 214.631C31.1985 214.507 31.1065 214.258 31.0356 213.835L17.2287 216.152L3.42179 218.47C3.85093 221.027 4.59206 223.624 5.74004 226.164L18.4972 220.397ZM17.2287 216.152L31.0626 214.003C31.0074 213.647 30.9758 213.14 31.0229 212.508L17.0617 211.467L3.10043 210.426C2.90682 213.023 2.987 215.678 3.39471 218.302L17.2287 216.152ZM17.0617 211.467L31.0025 212.753C31.0435 212.308 31.1432 211.728 31.3494 211.001L17.881 207.18L4.41267 203.358C3.78863 205.558 3.33689 207.839 3.12087 210.181L17.0617 211.467ZM17.881 207.18L31.4342 203.671C31.1532 202.585 31.0002 201.437 31.0002 200.234H17.0002H3.00016C3.00016 203.83 3.45986 207.336 4.32784 210.688L17.881 207.18ZM17.0002 200.234H31.0002V90.6309H17.0002H3.00016V200.234H17.0002ZM17.0002 90.6309L31.0002 90.631C31.0002 83.1028 37.103 77.0001 44.6312 77L44.631 63L44.6309 49C21.639 49.0002 3.0004 67.6388 3.00016 90.6307L17.0002 90.6309ZM44.631 63V77H223.313V63V49H44.631V63Z" fill="black" mask="url(#path-6-outside-1_106_35)"/>
</svg>
