<svg width="189" height="170" viewBox="0 0 189 170" fill="none" xmlns="http://www.w3.org/2000/svg">
<mask id="path-1-inside-1_89_56" fill="white">
<path fill-rule="evenodd" clip-rule="evenodd" d="M23 0C10.2975 0 0 10.2975 0 23V107C0 119.703 10.2975 130 23 130H24V170L64 130H166C178.703 130 189 119.703 189 107V23C189 10.2975 178.703 0 166 0H23Z"/>
</mask>
<path fill-rule="evenodd" clip-rule="evenodd" d="M23 0C10.2975 0 0 10.2975 0 23V107C0 119.703 10.2975 130 23 130H24V170L64 130H166C178.703 130 189 119.703 189 107V23C189 10.2975 178.703 0 166 0H23Z" fill="#D9D9D9"/>
<path d="M24 130H35V119H24V130ZM24 170H13V196.556L31.7782 177.778L24 170ZM64 130V119H59.4437L56.2218 122.222L64 130ZM11 23C11 16.3726 16.3726 11 23 11V-11C4.22232 -11 -11 4.22232 -11 23H11ZM11 107V23H-11V107H11ZM23 119C16.3726 119 11 113.627 11 107H-11C-11 125.778 4.22232 141 23 141V119ZM24 119H23V141H24V119ZM35 170V130H13V170H35ZM56.2218 122.222L16.2218 162.222L31.7782 177.778L71.7782 137.778L56.2218 122.222ZM166 119H64V141H166V119ZM178 107C178 113.627 172.627 119 166 119V141C184.778 141 200 125.778 200 107H178ZM178 23V107H200V23H178ZM166 11C172.627 11 178 16.3726 178 23H200C200 4.22232 184.778 -11 166 -11V11ZM23 11H166V-11H23V11Z" fill="black" mask="url(#path-1-inside-1_89_56)"/>
<circle cx="53.5" cy="65.5" r="12.5" fill="black"/>
<circle cx="94.5" cy="64.5" r="12.5" fill="black"/>
<circle cx="135.5" cy="64.5" r="12.5" fill="black"/>
</svg>
