<svg width="237" height="236" viewBox="0 0 237 236" fill="none" xmlns="http://www.w3.org/2000/svg">
<mask id="path-1-inside-1_89_47" fill="white">
<path fill-rule="evenodd" clip-rule="evenodd" d="M61.8828 154.249C114.074 154.249 156.383 111.94 156.383 59.7487C156.383 50.3573 155.013 41.2859 152.462 32.7233C147.373 15.6407 160.178 -7.07158 175.454 2.11256C211.96 24.0594 236.383 64.0518 236.383 109.749C236.383 179.06 180.195 235.249 110.883 235.249C64.2873 235.249 23.6227 209.855 1.97285 172.152C-6.90372 156.694 16.0748 144.337 33.0525 149.77C42.1413 152.679 51.8287 154.249 61.8828 154.249Z"/>
</mask>
<path fill-rule="evenodd" clip-rule="evenodd" d="M61.8828 154.249C114.074 154.249 156.383 111.94 156.383 59.7487C156.383 50.3573 155.013 41.2859 152.462 32.7233C147.373 15.6407 160.178 -7.07158 175.454 2.11256C211.96 24.0594 236.383 64.0518 236.383 109.749C236.383 179.06 180.195 235.249 110.883 235.249C64.2873 235.249 23.6227 209.855 1.97285 172.152C-6.90372 156.694 16.0748 144.337 33.0525 149.77C42.1413 152.679 51.8287 154.249 61.8828 154.249Z" fill="#FFC83D"/>
<path d="M1.97285 172.152L-11.0351 179.622L1.97285 172.152ZM33.0525 149.77L28.4809 164.057L33.0525 149.77ZM152.462 32.7233L138.086 37.0061L152.462 32.7233ZM141.383 59.7487C141.383 103.655 105.789 139.249 61.8828 139.249V169.249C122.358 169.249 171.383 120.224 171.383 59.7487H141.383ZM138.086 37.0061C140.228 44.1936 141.383 51.823 141.383 59.7487H171.383C171.383 48.8916 169.798 38.3781 166.837 28.4405L138.086 37.0061ZM167.726 14.9682C199.907 34.3154 221.383 69.5314 221.383 109.749H251.383C251.383 58.5722 224.012 13.8034 183.183 -10.743L167.726 14.9682ZM221.383 109.749C221.383 170.776 171.91 220.249 110.883 220.249V250.249C188.479 250.249 251.383 187.345 251.383 109.749H221.383ZM110.883 220.249C69.8755 220.249 34.0655 197.918 14.9808 164.683L-11.0351 179.622C13.1799 221.792 58.699 250.249 110.883 250.249V220.249ZM61.8828 139.249C53.3987 139.249 45.2528 137.925 37.6241 135.484L28.4809 164.057C39.0299 167.432 50.2587 169.249 61.8828 169.249V139.249ZM14.9808 164.683C14.7754 164.325 15.2495 165.232 14.807 166.459C14.5505 167.17 14.4419 166.7 15.9265 165.746C17.3273 164.846 19.4397 164.007 21.9298 163.648C24.4019 163.29 26.6929 163.484 28.4809 164.057L37.6241 135.484C24.6072 131.318 9.99207 133.899 -0.29186 140.508C-5.56457 143.896 -10.8145 149.074 -13.4135 156.28C-16.1985 164.002 -15.268 172.25 -11.0351 179.622L14.9808 164.683ZM166.837 28.4405C166.301 26.6399 166.153 24.3455 166.559 21.8825C166.968 19.4014 167.848 17.3086 168.775 15.9287C169.757 14.4664 170.222 14.5865 169.503 14.8294C168.266 15.2473 167.37 14.7542 167.726 14.9682L183.183 -10.743C175.901 -15.1212 167.675 -16.2193 159.9 -13.592C152.643 -11.1398 147.36 -5.99592 143.867 -0.792864C137.054 9.35525 134.185 23.9118 138.086 37.0061L166.837 28.4405Z" fill="black" mask="url(#path-1-inside-1_89_47)"/>
<circle cx="190" cy="62" r="11" fill="#EBA300"/>
<circle cx="94" cy="195" r="11" fill="#EBA300"/>
<circle cx="193.5" cy="95" r="15" fill="#EBA300"/>
<circle cx="156.5" cy="188.5" r="17.5" fill="#EBA300"/>
</svg>
