<svg width="300" height="300" viewBox="0 0 300 300" fill="none" xmlns="http://www.w3.org/2000/svg">
<mask id="path-1-outside-1_104_99" maskUnits="userSpaceOnUse" x="9" y="3" width="282" height="294" fill="black">
<rect fill="white" x="9" y="3" width="282" height="294"/>
<path d="M170.23 25C178.002 25.0002 184.613 29.9676 187.063 36.9004H251.15C261.008 36.9006 269 44.8918 269 54.75V78.5498C269 88.408 261.008 96.4002 251.15 96.4004H241.63V239.2C241.63 258.917 225.646 274.9 205.93 274.9H92.8799C73.1634 274.9 57.1798 258.917 57.1797 239.2V96.4004H48.8496C38.9915 96.4002 31 88.408 31 78.5498V54.75C31 44.8918 38.9915 36.9006 48.8496 36.9004H112.937C115.387 29.9676 121.998 25.0002 129.77 25H170.23Z"/>
</mask>
<path d="M170.23 25L170.231 3H170.23V25ZM187.063 36.9004L166.321 44.2317L171.506 58.9004H187.063V36.9004ZM251.15 36.9004L251.151 14.9004H251.15V36.9004ZM269 54.75L291 54.75L291 54.75L269 54.75ZM251.15 96.4004L251.15 118.4L251.151 118.4L251.15 96.4004ZM241.63 96.4004V74.4004H219.63V96.4004H241.63ZM241.63 239.2L263.63 239.2V239.2H241.63ZM92.8799 274.9L92.8798 296.9H92.8799V274.9ZM57.1797 239.2L35.1797 239.2L35.1797 239.2L57.1797 239.2ZM57.1797 96.4004H79.1797V74.4004H57.1797V96.4004ZM48.8496 96.4004L48.8491 118.4H48.8496V96.4004ZM31 54.75L9 54.75V54.75H31ZM48.8496 36.9004L48.8496 14.9004L48.8491 14.9004L48.8496 36.9004ZM112.937 36.9004V58.9004H128.494L133.679 44.2317L112.937 36.9004ZM129.77 25L129.77 3L129.769 3L129.77 25ZM170.23 25L170.23 47C168.387 47 166.88 45.8121 166.321 44.2317L187.063 36.9004L207.806 29.5691C202.347 14.1231 187.618 3.00044 170.231 3L170.23 25ZM187.063 36.9004V58.9004H251.15V36.9004V14.9004H187.063V36.9004ZM251.15 36.9004L251.15 58.9004C248.859 58.9003 247 57.0426 247 54.75L269 54.75L291 54.75C291 32.7411 273.158 14.9008 251.151 14.9004L251.15 36.9004ZM269 54.75H247V78.5498H269H291V54.75H269ZM269 78.5498H247C247 76.2588 248.857 74.4004 251.15 74.4004L251.15 96.4004L251.151 118.4C273.16 118.4 291 100.557 291 78.5498H269ZM251.15 96.4004V74.4004H241.63V96.4004V118.4H251.15V96.4004ZM241.63 96.4004H219.63V239.2H241.63H263.63V96.4004H241.63ZM241.63 239.2L219.63 239.2C219.63 246.766 213.496 252.9 205.93 252.9V274.9V296.9C237.797 296.9 263.63 271.067 263.63 239.2L241.63 239.2ZM205.93 274.9V252.9H92.8799V274.9V296.9H205.93V274.9ZM92.8799 274.9L92.88 252.9C85.3138 252.9 79.1797 246.766 79.1797 239.2L57.1797 239.2L35.1797 239.2C35.1798 271.067 61.0131 296.9 92.8798 296.9L92.8799 274.9ZM57.1797 239.2H79.1797V96.4004H57.1797H35.1797V239.2H57.1797ZM57.1797 96.4004V74.4004H48.8496V96.4004V118.4H57.1797V96.4004ZM48.8496 96.4004L48.8501 74.4004C51.143 74.4004 53 76.2588 53 78.5498H31H9C9 100.557 26.84 118.4 48.8491 118.4L48.8496 96.4004ZM31 78.5498H53V54.75H31H9V78.5498H31ZM31 54.75L53 54.75C53 57.0426 51.1414 58.9003 48.8501 58.9004L48.8496 36.9004L48.8491 14.9004C26.8416 14.9009 9 32.7411 9 54.75L31 54.75ZM48.8496 36.9004V58.9004H112.937V36.9004V14.9004H48.8496V36.9004ZM112.937 36.9004L133.679 44.2317C133.12 45.8121 131.613 47 129.77 47L129.77 25L129.769 3C112.382 3.00045 97.6533 14.1231 92.194 29.5691L112.937 36.9004ZM129.77 25V47H170.23V25V3H129.77V25Z" fill="#A85757" mask="url(#path-1-outside-1_104_99)"/>
<rect x="88" y="117" width="20" height="130" rx="8" fill="#A85757"/>
<rect x="192" y="117" width="20" height="130" rx="8" fill="#A85757"/>
<rect x="140" y="117" width="20" height="130" rx="8" fill="#A85757"/>
</svg>
