<svg width="300" height="300" viewBox="0 0 300 300" fill="none" xmlns="http://www.w3.org/2000/svg">
<mask id="path-1-outside-1_104_79" maskUnits="userSpaceOnUse" x="3" y="3" width="294" height="294" fill="black">
<rect fill="white" x="3" y="3" width="294" height="294"/>
<path d="M275 88.2461V242C275 260.225 260.225 275 242 275H58C39.7746 275 25 260.225 25 242V58C25 39.7746 39.7746 25 58 25H211.754L275 88.2461Z"/>
</mask>
<path d="M275 88.2461H297V79.1334L290.556 72.6897L275 88.2461ZM211.754 25L227.31 9.44365L220.867 3H211.754V25ZM275 88.2461H253V242H275H297V88.2461H275ZM275 242H253C253 248.075 248.075 253 242 253V275V297C272.376 297 297 272.376 297 242H275ZM242 275V253H58V275V297H242V275ZM58 275V253C51.9249 253 47 248.075 47 242H25H3C3 272.376 27.6243 297 58 297V275ZM25 242H47V58H25H3V242H25ZM25 58H47C47 51.9249 51.9249 47 58 47V25V3C27.6243 3 3 27.6243 3 58H25ZM58 25V47H211.754V25V3H58V25ZM211.754 25L196.198 40.5563L259.444 103.802L275 88.2461L290.556 72.6897L227.31 9.44365L211.754 25Z" fill="#57A89F" mask="url(#path-1-outside-1_104_79)"/>
<path d="M279.929 71.9288L228.071 20.071C221.771 13.7714 211 18.233 211 27.1421V78.9999C211 84.5228 215.477 88.9999 221 88.9999H272.858C281.767 88.9999 286.229 78.2285 279.929 71.9288Z" fill="#57A89F"/>
<rect x="47" y="46" width="127" height="32" rx="10" fill="#57A89F"/>
<path d="M96.2467 118.208C96.2467 115.846 98.1611 113.932 100.523 113.932H120.477C122.839 113.932 124.753 115.846 124.753 118.208V223.683C124.753 226.044 122.839 227.959 120.477 227.959H100.523C98.1611 227.959 96.2467 226.044 96.2467 223.683V118.208Z" fill="#57A89F"/>
<path d="M107.257 87.7741C108.963 85.7885 112.037 85.7885 113.743 87.7741L143.931 122.904C146.313 125.677 144.343 129.967 140.688 129.967H80.3123C76.6566 129.967 74.6866 125.677 77.0692 122.904L107.257 87.7741Z" fill="#57A89F"/>
</svg>
