<svg width="300" height="300" viewBox="0 0 300 300" fill="none" xmlns="http://www.w3.org/2000/svg">
<mask id="path-1-outside-1_104_131" maskUnits="userSpaceOnUse" x="5" y="60.7065" width="237" height="237" fill="black">
<rect fill="white" x="5" y="60.7065" width="237" height="237"/>
<path d="M219.392 131.378V249.703C219.392 263.728 208.022 275.098 193.996 275.098H52.3955C38.3699 275.098 27 263.728 27 249.703V108.102C27.0001 94.0765 38.37 82.7067 52.3955 82.7065H170.72L219.392 131.378Z"/>
</mask>
<path d="M219.392 131.378H241.392V122.266L234.948 115.822L219.392 131.378ZM52.3955 275.098L52.3953 297.098H52.3955V275.098ZM27 108.102L5 108.102V108.102H27ZM52.3955 82.7065L52.3955 60.7065L52.3953 60.7065L52.3955 82.7065ZM170.72 82.7065L186.276 67.1502L179.832 60.7065H170.72V82.7065ZM219.392 131.378H197.392V249.703H219.392H241.392V131.378H219.392ZM219.392 249.703H197.392C197.392 251.578 195.872 253.098 193.996 253.098V275.098V297.098C220.172 297.098 241.392 275.879 241.392 249.703H219.392ZM193.996 275.098V253.098H52.3955V275.098V297.098H193.996V275.098ZM52.3955 275.098L52.3957 253.098C50.5201 253.098 49 251.578 49 249.703H27H5C5 275.879 26.2198 297.098 52.3953 297.098L52.3955 275.098ZM27 249.703H49V108.102H27H5V249.703H27ZM27 108.102L49 108.102C49 106.227 50.5203 104.707 52.3957 104.707L52.3955 82.7065L52.3953 60.7065C26.2197 60.7068 5.00021 81.9262 5 108.102L27 108.102ZM52.3955 82.7065V104.707H170.72V82.7065V60.7065H52.3955V82.7065ZM170.72 82.7065L155.163 98.2629L203.835 146.935L219.392 131.378L234.948 115.822L186.276 67.1502L170.72 82.7065Z" fill="#57A89F" mask="url(#path-1-outside-1_104_131)"/>
<path d="M245.996 7C272.172 7.00034 293.392 28.2195 293.392 54.3955V195.996C293.392 222.172 272.172 243.391 245.996 243.392H219.392V221.392H245.996C260.022 221.391 271.392 210.022 271.392 195.996V54.3955C271.392 40.37 260.022 29.0002 245.996 29H104.396L103.74 29.0078C90.0176 29.3554 79.0002 40.5889 79.0002 54.3955V82.7061H57.0002V54.3955C57.0002 28.424 77.8897 7.33174 103.783 7.00391L104.396 7H245.996Z" fill="#57A89F"/>
</svg>
