<svg width="300" height="300" viewBox="0 0 300 300" fill="none" xmlns="http://www.w3.org/2000/svg">
<mask id="path-1-outside-1_104_62" maskUnits="userSpaceOnUse" x="3" y="3" width="294" height="294" fill="black">
<rect fill="white" x="3" y="3" width="294" height="294"/>
<path d="M275 88.2461V242C275 260.225 260.225 275 242 275H58C39.7746 275 25 260.225 25 242V58C25 39.7746 39.7746 25 58 25H211.754L275 88.2461Z"/>
</mask>
<path d="M275 88.2461H297V79.1334L290.556 72.6897L275 88.2461ZM211.754 25L227.31 9.44365L220.867 3H211.754V25ZM275 88.2461H253V242H275H297V88.2461H275ZM275 242H253C253 248.075 248.075 253 242 253V275V297C272.376 297 297 272.376 297 242H275ZM242 275V253H58V275V297H242V275ZM58 275V253C51.9249 253 47 248.075 47 242H25H3C3 272.376 27.6243 297 58 297V275ZM25 242H47V58H25H3V242H25ZM25 58H47C47 51.9249 51.9249 47 58 47V25V3C27.6243 3 3 27.6243 3 58H25ZM58 25V47H211.754V25V3H58V25ZM211.754 25L196.198 40.5563L259.444 103.802L275 88.2461L290.556 72.6897L227.31 9.44365L211.754 25Z" fill="#5762A8" mask="url(#path-1-outside-1_104_62)"/>
<path d="M212.852 175.011C230.683 175.462 245 190.059 245 208V275H223V208C223 201.925 218.075 197 212 197H88C81.9249 197 77 201.925 77 208V275H55V208C55 190.059 69.3166 175.462 87.1484 175.011L88 175H212L212.852 175.011Z" fill="#5762A8"/>
<path d="M221 80L220.989 80.8525C220.544 98.401 206.4 112.545 188.852 112.989L188 113H104L103.148 112.989C85.5996 112.545 71.4552 98.4004 71.0107 80.8516L71 80V25H93V80C93.0002 86.075 97.925 91 104 91H188C194.075 91 199 86.075 199 80V25H221V80Z" fill="#5762A8"/>
<rect x="159" y="34" width="30" height="47" rx="5" fill="#5762A8"/>
</svg>
