<svg width="300" height="300" viewBox="0 0 300 300" fill="none" xmlns="http://www.w3.org/2000/svg">
<path d="M276 279.303C276 288.707 268.377 296.33 258.973 296.33H41.027C31.6233 296.33 24 288.707 24 279.303V215.962C24 208.251 30.2512 202 37.9624 202V202C45.6736 202 51.9248 208.251 51.9248 215.962V250.698C51.9248 260.101 59.5481 267.725 68.9518 267.725H231.049C240.453 267.725 248.076 260.101 248.076 250.698V215.962C248.076 208.251 254.327 202 262.038 202V202C269.749 202 276 208.251 276 215.962V279.303Z" fill="#5762A8"/>
<path d="M161.919 13C161.919 6.41736 156.583 1.08107 150 1.08107C143.417 1.08107 138.081 6.41736 138.081 13L161.919 13ZM141.572 225.752C146.227 230.407 153.773 230.407 158.428 225.752L234.28 149.901C238.934 145.246 238.934 137.7 234.28 133.045C229.625 128.39 222.078 128.39 217.424 133.045L150 200.469L82.5764 133.045C77.9217 128.39 70.3751 128.39 65.7204 133.045C61.0658 137.7 61.0658 145.246 65.7204 149.901L141.572 225.752ZM150 13L138.081 13L138.081 217.324L150 217.324L161.919 217.324L161.919 13L150 13Z" fill="#5762A8"/>
</svg>
